<svg id="Layer_1" data-name="Layer 1" xmlns="http://www.w3.org/2000/svg" viewBox="0 0 432 432">
    <defs>
        <style>.cls-1{fill:#ed1c24;}</style>
    </defs>
    <title>JAH Logo</title>
    <polygon
        points="215.98 45.19 384.8 147.87 384.65 118.98 215.84 16.3 47.38 118.76 47.38 147.56 215.98 45.19" />
    <polygon
        points="215.84 390.97 384.65 288.28 384.65 317.08 215.84 419.77 47.38 317.3 47.38 288.5 215.84 390.97" />
    <polygon class="cls-1"
        points="129.69 107.08 129.69 144.94 211.54 95.07 211.67 57.12 129.69 107.08" />
    <polygon class="cls-1"
        points="179.28 321.38 79.86 260.81 79.44 182.29 47.38 201.82 47.38 278.66 211.41 378.5 211.41 376.41 211.54 101.72 179.09 121.58 179.28 321.38" />
    <polygon class="cls-1"
        points="352.66 298.15 384.68 278.68 384.65 157.73 352.13 137.88 352.33 199.78 252.6 199.98 252.6 77.52 220.15 57.66 220.33 378.5 252.6 358.67 252.6 232.42 352.44 231.83 352.66 298.15" />
</svg>